<?xml version="1.0" encoding="UTF-8"?>
<svg id="_レイヤー_2" data-name="レイヤー_2" xmlns="http://www.w3.org/2000/svg" xmlns:xlink="http://www.w3.org/1999/xlink" viewBox="0 0 1207.24 80.27">
  <defs>
    <style>
      .cls-1 {
        fill: url(#_名称未設定グラデーション_5);
      }

      .cls-2 {
        fill: #fff;
      }

      .cls-3 {
        fill: #333;
      }

      .cls-4 {
        fill: url(#_名称未設定グラデーション_7);
      }
    </style>
    <linearGradient id="_名称未設定グラデーション_5" data-name="名称未設定グラデーション 5" x1="0" y1="39.88" x2="111" y2="39.88" gradientUnits="userSpaceOnUse">
      <stop offset="0" stop-color="#81d9f4"/>
      <stop offset=".21" stop-color="#8ad8f5"/>
      <stop offset=".56" stop-color="#a3d8f9"/>
      <stop offset=".99" stop-color="#ccd8ff"/>
    </linearGradient>
    <linearGradient id="_名称未設定グラデーション_7" data-name="名称未設定グラデーション 7" x1="27.46" y1="65.97" x2="56.05" y2="65.97" gradientUnits="userSpaceOnUse">
      <stop offset="0" stop-color="#81d9f4"/>
      <stop offset=".31" stop-color="#8ad8f6"/>
      <stop offset=".83" stop-color="#a3d7fc"/>
      <stop offset=".99" stop-color="#add7ff"/>
    </linearGradient>
  </defs>
  <g id="_レイヤー_1-2" data-name="レイヤー_1">
    <g>
      <g>
        <path class="cls-3" d="M185.6,36.17c0,1.82-.38,3.55-1.15,5.19s-1.87,3.02-3.31,4.12c-.88.68-1.85,1.31-2.91,1.89-1.06.58-2.23,1.07-3.5,1.47-1.28.4-2.67.72-4.17.94-1.5.23-3.18.34-5.04.34h-6.83v12.77h-13.04V23.84h20.15c3,0,5.58.21,7.76.62,2.17.41,4.14,1.06,5.91,1.95,1.95.98,3.46,2.29,4.53,3.92,1.07,1.63,1.6,3.58,1.6,5.83ZM172.21,36.4c0-1.1-.35-2.05-1.05-2.84s-1.53-1.34-2.51-1.64c-1.23-.4-2.41-.63-3.54-.69-1.13-.06-2.66-.09-4.58-.09h-1.85v11.7h.91c1.23,0,2.39,0,3.49-.03,1.09-.02,2.04-.08,2.86-.18.7-.09,1.44-.26,2.21-.51.78-.25,1.38-.54,1.8-.85.88-.65,1.48-1.32,1.8-2.02.31-.7.47-1.64.47-2.83Z"/>
        <path class="cls-3" d="M202.54,62.89v-31.6h-15.34v-7.45h43.72v7.45h-15.34v31.6h-13.04Z"/>
        <path class="cls-3" d="M236.29,62.89V23.84h35.11v7.45h-22.14v6.84h20.4v7.45h-20.4v9.86h22.14v7.45h-35.11Z"/>
        <path class="cls-3" d="M305.89,51.43c0,1.7-.38,3.29-1.15,4.79-.77,1.49-1.93,2.77-3.49,3.82-1.74,1.19-3.8,2.06-6.17,2.62-2.37.56-5.1.84-8.19.84-2.3,0-4.46-.07-6.49-.2-2.02-.13-3.8-.32-5.33-.56v-7.92h1.19c1.05.31,2.14.61,3.28.88,1.14.27,2.6.41,4.39.41,2.3,0,4.07-.25,5.32-.73,1.24-.49,2.12-1.17,2.63-2.05.53-.86.83-1.85.89-2.98.06-1.13.09-2.38.09-3.76v-15.66h-11.89v-7.08h24.93v27.59Z"/>
        <path class="cls-3" d="M384.9,62.89h-15.9l-14.47-14.32h-4.67v14.32h-12.97V23.84h20.89c2.88,0,5.39.14,7.53.41,2.14.27,4.11.84,5.93,1.69,1.86.89,3.34,2.02,4.43,3.4,1.09,1.37,1.64,3.12,1.64,5.23,0,2.99-.9,5.42-2.68,7.28-1.79,1.86-4.18,3.34-7.18,4.44l17.47,16.6ZM363.91,35.8c0-.98-.25-1.82-.75-2.53-.5-.71-1.33-1.25-2.49-1.64-.81-.26-1.72-.43-2.72-.5-1-.07-2.24-.11-3.73-.11h-4.36v10.52h3.73c1.81,0,3.35-.08,4.62-.25,1.27-.17,2.34-.52,3.23-1.06.84-.49,1.46-1.08,1.87-1.76s.61-1.57.61-2.67Z"/>
        <path class="cls-3" d="M400.59,29.24h-12.9v-7.16h12.9v7.16ZM400.24,62.89h-12.2v-29.45h12.2v29.45Z"/>
        <path class="cls-3" d="M445.18,59.51c0,2.73-.52,5.04-1.57,6.95-1.05,1.91-2.48,3.39-4.29,4.46-1.81,1.08-3.99,1.87-6.52,2.35-2.53.48-5.35.72-8.44.72-2.6,0-5.07-.13-7.41-.38-2.34-.25-4.36-.55-6.08-.88v-7.37h1.43c.6.17,1.32.37,2.14.58.82.21,1.66.4,2.49.58,1,.19,1.98.35,2.93.47.95.12,1.93.18,2.93.18,2.07,0,3.79-.16,5.18-.49,1.38-.32,2.42-.78,3.12-1.38.7-.61,1.19-1.33,1.46-2.16.28-.83.42-1.88.42-3.13v-.55c-1.37.91-2.96,1.64-4.76,2.19-1.8.55-3.66.83-5.56.83-5.07,0-8.98-1.24-11.73-3.72s-4.13-6.26-4.13-11.33c0-2.31.42-4.38,1.27-6.21.85-1.84,2.03-3.4,3.54-4.69,1.44-1.24,3.18-2.2,5.23-2.87,2.05-.67,4.17-1.01,6.38-1.01,2,0,3.79.19,5.37.58,1.58.38,3.02.9,4.32,1.55l.45-1.31h11.82v26.07ZM432.98,53.61v-13.35c-.6-.21-1.35-.38-2.23-.52-.88-.14-1.77-.21-2.65-.21-2.93,0-5.13.71-6.61,2.14s-2.21,3.41-2.21,5.97c0,1.28.11,2.36.33,3.24.22.88.63,1.67,1.24,2.35.58.66,1.34,1.17,2.28,1.51s2.14.51,3.61.51c1.09,0,2.17-.14,3.23-.42,1.06-.28,2.06-.68,3.02-1.21Z"/>
        <path class="cls-3" d="M491.21,62.89h-12.27v-14.61c0-1.19-.06-2.37-.19-3.55-.13-1.18-.37-2.05-.71-2.61-.42-.67-1.02-1.14-1.81-1.43-.79-.29-1.85-.43-3.17-.43-1,0-2.01.14-3.03.42-1.02.28-2.12.73-3.28,1.34v20.88h-12.2V22.08h12.2v14.61c2-1.28,3.95-2.27,5.84-2.99,1.89-.72,3.99-1.08,6.29-1.08,4,0,7.05.95,9.17,2.85,2.11,1.9,3.17,4.65,3.17,8.25v19.17Z"/>
        <path class="cls-3" d="M515.23,63.47c-4.97,0-8.59-.77-10.86-2.31-2.27-1.54-3.4-4.06-3.4-7.55v-13.77h-4.67v-6.4h4.67v-8.42h12.2v8.42h11.75v6.4h-11.75v10.44c0,1.03.01,1.93.03,2.7.02.77.21,1.46.56,2.07.33.61.9,1.1,1.73,1.46.82.36,2.03.54,3.61.54.65,0,1.5-.11,2.56-.32,1.06-.21,1.8-.4,2.21-.58h1.05v6.48c-1.32.26-2.73.47-4.22.62-1.49.15-3.31.22-5.47.22Z"/>
        <path class="cls-3" d="M541.83,63.7c-2.88,0-5.61-.24-8.18-.71-2.57-.47-4.69-1.02-6.36-1.65v-7.76h1.01c.58.33,1.24.7,1.99,1.1.74.4,1.78.82,3.1,1.26,1.14.4,2.42.75,3.85,1.04,1.43.29,2.98.43,4.65.43s3.24-.2,4.55-.6c1.31-.4,1.97-1.04,1.97-1.92,0-.68-.3-1.2-.91-1.55-.6-.35-1.78-.68-3.52-1-.93-.17-2.1-.36-3.52-.56-1.42-.2-2.67-.43-3.77-.69-3.07-.72-5.38-1.78-6.92-3.19-1.55-1.41-2.32-3.26-2.32-5.55,0-1.31.4-2.55,1.2-3.71.8-1.16,1.98-2.2,3.54-3.11,1.56-.89,3.48-1.6,5.77-2.12,2.29-.52,4.88-.79,7.76-.79s5.26.21,7.57.62c2.3.41,4.24.91,5.82,1.48v7.45h-.98c-.42-.24-1.08-.57-1.99-.98-.91-.41-1.79-.76-2.65-1.06-1.02-.35-2.17-.64-3.43-.87-1.27-.23-2.56-.34-3.89-.34-1.77,0-3.26.23-4.48.68-1.22.45-1.83,1.06-1.83,1.81,0,.67.3,1.19.91,1.57.6.38,1.92.76,3.94,1.13,1.05.19,2.25.38,3.61.56s2.67.43,3.92.75c2.81.68,4.95,1.68,6.4,3s2.18,3.07,2.18,5.26c0,1.38-.43,2.7-1.29,3.95-.86,1.25-2.08,2.3-3.66,3.16-1.67.93-3.64,1.64-5.91,2.15-2.27.51-4.98.76-8.14.76Z"/>
        <path class="cls-3" d="M641.31,62.89h-12.97v-25.88l-9.45,16.71h-8.89l-9.45-16.71v25.88h-12.27V23.84h15.03l11.51,19.28,11.47-19.28h15.03v39.05Z"/>
        <path class="cls-3" d="M672.93,59.77c-.84.52-1.59,1-2.25,1.42-.66.42-1.55.84-2.67,1.26-1.09.4-2.16.71-3.19.92-1.03.21-2.48.32-4.34.32-3.46,0-6.34-.87-8.63-2.62-2.29-1.75-3.43-3.95-3.43-6.61,0-2.19.58-3.95,1.74-5.3,1.16-1.35,2.84-2.41,5.02-3.2,2.21-.8,4.85-1.36,7.92-1.68,3.07-.32,6.37-.56,9.9-.73v-.16c0-1.63-.8-2.75-2.39-3.37s-3.98-.93-7.17-.93c-1.44,0-3.13.2-5.06.59-1.93.39-3.81.9-5.65,1.51h-1.05v-7.11c1.21-.26,3.16-.57,5.86-.93,2.7-.36,5.42-.54,8.16-.54,6.74,0,11.65.84,14.73,2.53s4.62,4.26,4.62,7.72v20.04h-12.13v-3.12ZM672.93,55.21v-6.14c-2.07.16-3.74.29-5.02.41-1.28.11-2.53.34-3.77.67-1.07.28-1.9.7-2.49,1.27-.59.57-.89,1.32-.89,2.27,0,1.38.49,2.33,1.48,2.85.99.52,2.45.77,4.38.77,1.07,0,2.16-.18,3.28-.55s2.13-.88,3.03-1.55Z"/>
        <path class="cls-3" d="M730.78,62.89h-12.27v-14.61c0-1.19-.06-2.37-.19-3.55-.13-1.18-.37-2.05-.71-2.61-.42-.67-1.02-1.14-1.81-1.43-.79-.29-1.85-.43-3.17-.43-1,0-2.01.14-3.03.42-1.02.28-2.12.73-3.28,1.34v20.88h-12.2v-29.45h12.2v3.25c2-1.28,3.95-2.27,5.84-2.99,1.89-.72,3.99-1.08,6.29-1.08,4,0,7.05.95,9.17,2.85,2.11,1.9,3.17,4.65,3.17,8.25v19.17Z"/>
        <path class="cls-3" d="M761.39,59.77c-.84.52-1.59,1-2.25,1.42-.66.42-1.55.84-2.67,1.26-1.09.4-2.16.71-3.19.92-1.03.21-2.48.32-4.34.32-3.46,0-6.34-.87-8.63-2.62-2.29-1.75-3.43-3.95-3.43-6.61,0-2.19.58-3.95,1.74-5.3,1.16-1.35,2.84-2.41,5.02-3.2,2.21-.8,4.85-1.36,7.92-1.68,3.07-.32,6.37-.56,9.9-.73v-.16c0-1.63-.8-2.75-2.39-3.37s-3.98-.93-7.17-.93c-1.44,0-3.13.2-5.06.59-1.93.39-3.81.9-5.65,1.51h-1.05v-7.11c1.21-.26,3.16-.57,5.86-.93,2.7-.36,5.42-.54,8.16-.54,6.74,0,11.65.84,14.73,2.53s4.62,4.26,4.62,7.72v20.04h-12.13v-3.12ZM761.39,55.21v-6.14c-2.07.16-3.74.29-5.02.41-1.28.11-2.53.34-3.77.67-1.07.28-1.9.7-2.49,1.27-.59.57-.89,1.32-.89,2.27,0,1.38.49,2.33,1.48,2.85.99.52,2.45.77,4.38.77,1.07,0,2.16-.18,3.28-.55s2.13-.88,3.03-1.55Z"/>
        <path class="cls-3" d="M818.16,59.51c0,2.73-.52,5.04-1.57,6.95-1.05,1.91-2.48,3.39-4.29,4.46-1.81,1.08-3.99,1.87-6.52,2.35-2.53.48-5.35.72-8.44.72-2.6,0-5.07-.13-7.41-.38-2.34-.25-4.36-.55-6.08-.88v-7.37h1.43c.6.17,1.32.37,2.14.58.82.21,1.66.4,2.49.58,1,.19,1.98.35,2.93.47.95.12,1.93.18,2.93.18,2.07,0,3.79-.16,5.18-.49,1.38-.32,2.42-.78,3.12-1.38.7-.61,1.19-1.33,1.46-2.16.28-.83.42-1.88.42-3.13v-.55c-1.37.91-2.96,1.64-4.76,2.19-1.8.55-3.66.83-5.56.83-5.07,0-8.98-1.24-11.73-3.72s-4.13-6.26-4.13-11.33c0-2.31.42-4.38,1.27-6.21.85-1.84,2.03-3.4,3.54-4.69,1.44-1.24,3.18-2.2,5.23-2.87,2.05-.67,4.17-1.01,6.38-1.01,2,0,3.79.19,5.37.58,1.58.38,3.02.9,4.32,1.55l.45-1.31h11.82v26.07ZM805.95,53.61v-13.35c-.6-.21-1.35-.38-2.23-.52-.88-.14-1.77-.21-2.65-.21-2.93,0-5.13.71-6.61,2.14s-2.21,3.41-2.21,5.97c0,1.28.11,2.36.33,3.24.22.88.63,1.67,1.24,2.35.58.66,1.34,1.17,2.28,1.51s2.14.51,3.61.51c1.09,0,2.17-.14,3.23-.42,1.06-.28,2.06-.68,3.02-1.21Z"/>
        <path class="cls-3" d="M847.55,63.68c-7.39,0-13.06-1.33-17-3.99s-5.91-6.44-5.91-11.36,1.84-8.65,5.51-11.51c3.67-2.87,8.81-4.3,15.41-4.3,6,0,10.51,1.21,13.53,3.65,3.02,2.43,4.53,5.91,4.53,10.44v3.3h-26.74c.12,1.36.5,2.5,1.15,3.42.65.92,1.51,1.65,2.58,2.19,1.05.54,2.27.93,3.66,1.17,1.39.24,2.92.35,4.57.35,1.42,0,2.81-.12,4.18-.35,1.37-.24,2.63-.55,3.77-.93,1-.33,1.92-.69,2.77-1.08.85-.38,1.54-.73,2.07-1.02h1.29v7.58c-1,.3-1.91.57-2.74.83-.83.25-1.96.51-3.4.77-1.32.26-2.69.47-4.1.62-1.41.15-3.12.22-5.14.22ZM851.59,44.38c-.07-1.94-.67-3.42-1.8-4.43-1.13-1.01-2.85-1.52-5.18-1.52s-4.23.53-5.56,1.6c-1.34,1.07-2.07,2.52-2.21,4.35h14.75Z"/>
        <path class="cls-3" d="M916.69,62.89v-14.71c0-1.45-.04-2.67-.1-3.67-.07-1-.28-1.81-.63-2.44-.35-.63-.89-1.09-1.62-1.38-.73-.29-1.76-.43-3.09-.43-.93,0-1.85.15-2.75.46s-1.9.74-2.96,1.3v20.88h-12.27v-14.71c0-1.43-.04-2.65-.12-3.66-.08-1.01-.3-1.82-.65-2.45-.35-.63-.89-1.09-1.62-1.38-.73-.29-1.75-.43-3.05-.43-1,0-1.98.17-2.93.52-.95.35-1.88.76-2.79,1.23v20.88h-12.2v-29.45h12.2v3.25c2-1.28,3.88-2.27,5.65-2.99,1.77-.72,3.75-1.08,5.96-1.08,2.39,0,4.5.43,6.31,1.29,1.81.86,3.2,2.13,4.15,3.83,2.35-1.64,4.56-2.91,6.64-3.79,2.08-.88,4.19-1.32,6.33-1.32,1.81,0,3.44.22,4.88.66,1.44.44,2.66,1.09,3.66,1.97,1.09.94,1.91,2.07,2.46,3.37.55,1.3.82,3,.82,5.1v19.17h-12.27Z"/>
        <path class="cls-3" d="M958.04,63.68c-7.39,0-13.06-1.33-17-3.99s-5.91-6.44-5.91-11.36,1.84-8.65,5.51-11.51c3.67-2.87,8.81-4.3,15.41-4.3,6,0,10.51,1.21,13.53,3.65,3.02,2.43,4.53,5.91,4.53,10.44v3.3h-26.74c.12,1.36.5,2.5,1.15,3.42.65.92,1.51,1.65,2.58,2.19,1.05.54,2.27.93,3.66,1.17,1.39.24,2.92.35,4.57.35,1.42,0,2.81-.12,4.18-.35,1.37-.24,2.63-.55,3.77-.93,1-.33,1.92-.69,2.77-1.08.85-.38,1.54-.73,2.07-1.02h1.29v7.58c-1,.3-1.91.57-2.74.83-.83.25-1.96.51-3.4.77-1.32.26-2.69.47-4.1.62-1.41.15-3.12.22-5.14.22ZM962.09,44.38c-.07-1.94-.67-3.42-1.8-4.43-1.13-1.01-2.85-1.52-5.18-1.52s-4.23.53-5.56,1.6c-1.34,1.07-2.07,2.52-2.21,4.35h14.75Z"/>
        <path class="cls-3" d="M1017.07,62.89h-12.27v-14.61c0-1.19-.06-2.37-.19-3.55-.13-1.18-.37-2.05-.71-2.61-.42-.67-1.02-1.14-1.81-1.43-.79-.29-1.85-.43-3.17-.43-1,0-2.01.14-3.03.42-1.02.28-2.12.73-3.28,1.34v20.88h-12.2v-29.45h12.2v3.25c2-1.28,3.95-2.27,5.84-2.99,1.89-.72,3.99-1.08,6.29-1.08,4,0,7.05.95,9.17,2.85,2.11,1.9,3.17,4.65,3.17,8.25v19.17Z"/>
        <path class="cls-3" d="M1041.1,63.47c-4.97,0-8.59-.77-10.86-2.31-2.27-1.54-3.4-4.06-3.4-7.55v-13.77h-4.67v-6.4h4.67v-8.42h12.2v8.42h11.75v6.4h-11.75v10.44c0,1.03.01,1.93.03,2.7.02.77.21,1.46.56,2.07.33.61.9,1.1,1.73,1.46.82.36,2.03.54,3.61.54.65,0,1.5-.11,2.56-.32,1.06-.21,1.8-.4,2.21-.58h1.05v6.48c-1.32.26-2.73.47-4.22.62-1.49.15-3.31.22-5.47.22Z"/>
        <path class="cls-3" d="M1103.26,62.89h-27.96v-6.82h7.46v-25.41h-7.46v-6.82h27.96v6.82h-7.46v25.41h7.46v6.82Z"/>
        <path class="cls-3" d="M1147.9,62.89h-12.27v-14.61c0-1.19-.06-2.37-.19-3.55-.13-1.18-.37-2.05-.71-2.61-.42-.67-1.02-1.14-1.81-1.43s-1.85-.43-3.17-.43c-1,0-2.01.14-3.03.42-1.02.28-2.12.73-3.28,1.34v20.88h-12.2v-29.45h12.2v3.25c2-1.28,3.95-2.27,5.84-2.99,1.89-.72,3.99-1.08,6.29-1.08,4,0,7.05.95,9.17,2.85,2.11,1.9,3.17,4.65,3.17,8.25v19.17Z"/>
        <path class="cls-3" d="M1176.14,63.68c-3.23,0-6.19-.31-8.87-.92-2.69-.61-5.02-1.56-6.99-2.83-1.95-1.28-3.48-2.88-4.57-4.81-1.09-1.93-1.64-4.21-1.64-6.83,0-2.81.59-5.21,1.78-7.19,1.19-1.98,2.79-3.6,4.81-4.88,1.95-1.22,4.25-2.13,6.89-2.71,2.64-.59,5.39-.88,8.25-.88,2.16,0,4.32.19,6.49.56s4.33.97,6.52,1.8v7.87h-1.57c-.49-.35-1.09-.73-1.8-1.15s-1.48-.8-2.32-1.15c-.88-.37-1.88-.68-3-.93-1.12-.25-2.36-.38-3.73-.38-3.12,0-5.53.82-7.23,2.45-1.71,1.64-2.56,3.83-2.56,6.6,0,2.96.91,5.16,2.74,6.61,1.82,1.45,4.25,2.18,7.27,2.18,1.53,0,2.88-.13,4.04-.39,1.16-.26,2.16-.58,3-.94.81-.37,1.51-.75,2.09-1.14.58-.39,1.08-.75,1.5-1.06h1.57v7.87c-.7.23-1.51.49-2.42.79-.92.3-1.85.54-2.81.73-1.19.24-2.3.43-3.33.56s-2.4.2-4.1.2Z"/>
        <path class="cls-3" d="M1207.24,62.89h-12.34v-10.31h12.34v10.31Z"/>
      </g>
      <g>
        <path class="cls-1" d="M111,34.65v45.11h-14.88l-.13-25.81-10.22,13.47-30.47-32.8-5.9,14.2h-14.11l10.85-25.23h14.34l12.9,13.68c8.42-4.73,9.84-9.62,9.2-13.92-.86-5.73-8.6-11.21-17.11-11.23h-25.88L14.3,79.76H0L31.31,0h34.16c5.57.26,10.38-.07,17.54,4.7,3.15,2.1,10.86,6.9,11.83,18.68.72,8.76-2.69,16.41-12.41,23.04l4.07,4.07,11.49-15.84h13.01Z"/>
        <circle class="cls-4" cx="41.76" cy="65.97" r="14.3"/>
        <path class="cls-2" d="M51.73,62.05q-3.68,1.81-5.51,5.51-1.83-3.71-5.54-5.54,3.68-1.81,5.51-5.51,1.83,3.71,5.54,5.54Z"/>
      </g>
    </g>
  </g>
</svg>