<svg xmlns="http://www.w3.org/2000/svg" viewBox="0 0 1531.48 364.81"><g id="レイヤー_2" data-name="レイヤー 2"><g id="レイヤー_1-2" data-name="レイヤー 1"><path d="M180.58,76.26v25.55H115.35V76.26h-9.42v30.63h80.6v23.56h-80.6v1.37H77.28V76.26H69.6V53.45h7.68V37.33h28.65V53.45h9.42V36.71h26.91V53.45h11.41V36.71h26.91V53.45h9.79V76.26ZM153.67,81V76.26H142.26V81Z"/><path d="M310.78,106.15c-.58,1.9-.91,3.06-1,3.47a135.73,135.73,0,0,1-23.43-8.06l.49,30.13H259.56l-.74-41.41h7.69a52.36,52.36,0,0,1-7.44-6.82h-7.19a56.5,56.5,0,0,1-8.81,6.94l15.38,2.36q-4.83,16.6-14.26,27.15-4.71,5.34-13.64,8.81a92,92,0,0,1-20.09,5.08,129.35,129.35,0,0,0-7.44-11A114.15,114.15,0,0,0,193.6,112q19.83-1.5,26.53-5.83a21.23,21.23,0,0,0,6.45-6.57,139.8,139.8,0,0,1-27.65,9.79c-.17-.41-.62-1.82-1.37-4.21q-1.6-5.58-3-9.3a35.12,35.12,0,0,0-3.29-6.58,204,204,0,0,0,29.14-5.82H197.94V38.94H310.4V83.46H288a196.71,196.71,0,0,0,28.15,5.82A118.12,118.12,0,0,0,310.78,106.15ZM241,55.8H224.35v3.35H241Zm0,17.12V69.57H224.35v3.35Zm26.42-13.77h16.74V55.8H267.38Zm0,13.77h16.74V69.57H267.38Z"/><path d="M325.78,130.82q-2.23-10.65-3.28-20.15a193.25,193.25,0,0,1-1.06-21.39,438.91,438.91,0,0,1,3.1-47.36h31.62q-3.72,31-3.72,48.36a128.79,128.79,0,0,0,1.43,20.27,108.67,108.67,0,0,0,4.4,17.67Zm43.9-8.3q-9.18-7.81-9.18-23.94a68.9,68.9,0,0,1,.75-9.79,67.61,67.61,0,0,0,26-7.32,76.92,76.92,0,0,0-.61,8.19A16.14,16.14,0,0,0,388,97a6.62,6.62,0,0,0,3.9,3.35,23.06,23.06,0,0,0,7.07.87q11,0,19.65-.68a136.32,136.32,0,0,0,20.16-3.41,77.16,77.16,0,0,0-1.93,13.2q-.68,8.63-.68,17.8-10.17,1.36-18.6,1.79t-18.6.44Q378.86,130.33,369.68,122.52Zm-4.47-77.38a266.08,266.08,0,0,1,50-4.84q7.44,0,16.73.62,0,8.8.25,15.19A114.72,114.72,0,0,0,433.41,69a217.13,217.13,0,0,0-26.16-1.74,199.12,199.12,0,0,0-40.55,4.47Z"/><path d="M549.6,41.05h11.66V61.14H549.6v3.59H526.54V61.14H512.9v3.59H491.07V61.14H478.8v8.18H474v7.94l5.21-.38q-.37,7.32-.37,22c-1.08.17-2.69.33-4.84.5v11.53Q474,121,472.23,125a8.56,8.56,0,0,1-6.33,5q-4.59,1-17.11,1.55l-2.48.12q-.63-7.93-1.49-12.89a43.16,43.16,0,0,0-3.35-10.42,25.28,25.28,0,0,0,5.64-.43c1.12-.29,1.78-.73,2-1.31a10.68,10.68,0,0,0,.31-3.1v-1.73l-6.08.49q-.24-5.82-.68-12t-1.3-11.22l8.06-.38V69.32h-6.08V47.37h6.08V37.2H474V47.37h4.46V41.05h12.65V36.58H512.9v4.47h13.64V36.58H549.6ZM481,66.72h77.5v65.59h-25v-1.73h-27.4v1.73H481Zm30.13,21.82V84.2h-5.08v4.34Zm0,17.73h-5.08v5.09h5.08ZM528.4,88.54h5.08V84.2H528.4Zm0,22.82h5.08v-5.09H528.4Z"/><path d="M613,114.64q-22.51-15.44-34.17-23-6.95-4.59-6.94-8.8,0-3.11,4-6.08l4.34-3q36.45-24.42,55.43-40.67,12.15,3,21.51,5T677,41.42q-25.8,17.23-61.26,39.06c-.66.41-1,.83-1,1.24s.41,1,1.24,1.49q30,17.12,60.27,36.33a119.83,119.83,0,0,0-14.45,6.32q-6.63,3.48-15.94,8.93l-2.48,1.49Q635.54,130.09,613,114.64Z"/><path d="M721,137.89q-7.56-8.31-29.14-23.81l13-15.87q7.81,4.47,16.61,10.54a138.21,138.21,0,0,1,14.27,11Z"/><path d="M923.46,76.51h-6.08v2.36h3.48V97.34h-3.48V114.7q0,7.81-2.35,11t-9.43,4.15q-7.07,1-24.55,1a66.72,66.72,0,0,0-1-10.66l-7.69,6.08q-5.46-6.7-10.1-11.47A68.35,68.35,0,0,0,852,106.15l11.65-8.81h-9.3V78.87h37.82V76.51H852.28V69.2H847v10q1.6-.12,5.46-.62v21.82l-5.46.75v10.54c0,5.45-.91,9.55-2.73,12.27s-5.14,4.68-10,5.83S822,131.73,812,132.06a72.49,72.49,0,0,0-6.32-24.3q9.8,0,13.14-.19c2.24-.12,3.6-.41,4.1-.86a3.87,3.87,0,0,0,.74-2.79v-.38q-5.58.51-18,1.24a192.16,192.16,0,0,0-2.36-23.43q6.08,0,9.06-.13a61.17,61.17,0,0,0-6.45-6.2l-2.61-2.23a98.16,98.16,0,0,0,4.59-29H821l.12,4.71h2.48V37.58H847V48.49h5.46V60.76h21.82V58.53h-19V40.43h19V37.2h25.55v3.23h20.83v18.1H899.78v2.23h23.68ZM823.64,69.2h-3.85a87.41,87.41,0,0,1-2.6,11.9l6.45-.12Zm68.57,28.14H872.37a90.08,90.08,0,0,1,12.15,12.28c2.15.17,3.48.25,4,.25a5,5,0,0,0,3-.62,3,3,0,0,0,.68-2.23Z"/><path d="M930.65,79.12V38.44h59V79.12H958.43v2.35h31.25v21.7q0,11.65-1.86,17.42a14,14,0,0,1-7.82,8.56q-5.94,2.79-18.72,3.78c-1-4.3-1.41-6-1.24-5.21a114.13,114.13,0,0,0-3.84-14,31.06,31.06,0,0,1-1,3,67.65,67.65,0,0,1-4.09,8.93,50.63,50.63,0,0,1-5.21,7.19q-6.81-5.7-12-9.3a69.13,69.13,0,0,0-11.41-6.33,29.81,29.81,0,0,0,6.69-6,40.71,40.71,0,0,0,4.59-7.31,25.17,25.17,0,0,0,2.42-9.43,151.37,151.37,0,0,0,.43-15.37Zm35.84-23.07H953.84v5.71h12.65Zm.37,44.89h-8.68q-.12,2.36-.62,6.57a54.08,54.08,0,0,0,6.2-.25,4.69,4.69,0,0,0,2.54-.8,2.1,2.1,0,0,0,.56-1.55Zm26-61.26h23.43v62.25H992.9Zm27-1.48h24.93v75.39q0,8.55-2.3,11.78t-10.6,4.28q-8.31,1-29.88,1a17.68,17.68,0,0,0,.12-2.48,29.56,29.56,0,0,0-2.11-10.6,34.49,34.49,0,0,0-6.82-10.73q12,.87,19.22.87,7.44,0,7.44-1.74Z"/><path d="M1118.64,67.58q-7.44.75-22.94,1.74a124.42,124.42,0,0,1-12.22,32.36,109.39,109.39,0,0,1-19.78,26.17,135.8,135.8,0,0,0-6.57-16.74,91.14,91.14,0,0,0-7.69-13.89,71,71,0,0,0,10.92-12.59,58.7,58.7,0,0,0,6.94-14.57q-4.47.14-13.52.13V45.64c7.86,0,13.72,0,17.61-.13.17-2.64.25-4.67.25-6.07H1099c0,2.31,0,4.05-.12,5.2q6.57-.36,19.72-1.61v18.6l6.19-21a450.81,450.81,0,0,1,47,8.43l-7.07,25.54q-25-8.43-46.12-10.41Zm33.85,4.22V90.28a113.83,113.83,0,0,1,19.09,9.42l-8.18,27.53a158.16,158.16,0,0,0-13-11.41q-6.33,16.62-31.25,16.62-15.14,0-24.43-6.64t-9.3-19.28a20.68,20.68,0,0,1,4.22-13A26.22,26.22,0,0,1,1101,85.19a42.68,42.68,0,0,1,15.87-2.85,54.57,54.57,0,0,1,7.44.5v-11Zm-28.15,30.88a34.55,34.55,0,0,0-6.08-.62,11.5,11.5,0,0,0-4.46.62,2.14,2.14,0,0,0-1.36,2.1c0,.91.62,1.76,1.85,2.55a9.27,9.27,0,0,0,5,1.17c2,0,3.33-.37,4-1.11a4.74,4.74,0,0,0,1-3.35Z"/><path d="M1290.38,54.32l-1.49,6h5V84.82h-2.11V99h-4v5.33h5.58v21.33h-5.58v5.7h-14.63v-5.7H1252.8V113.46a29.55,29.55,0,0,1-3.1,6.82,20.82,20.82,0,0,1-9.3,8.25,70.94,70.94,0,0,1-15.25,4.15q-1.74-7.07-3.28-11.65a82.25,82.25,0,0,0-4-9.67,54.19,54.19,0,0,0,6,.37,23.72,23.72,0,0,0,9.17-1.61l-4.09-4.1-4.34,4c-.25-.49-1-2.13-2.35-4.9a81.51,81.51,0,0,0-4.59-8.24v31.62h-21.7v3.22h-17.73v-92h39.43V92.26q6.57-3.23,9.3-7.44h-6.82V60.27h6.45l-1.12-4.09h-4.84c0-.5-.12-2.81-.37-7a39,39,0,0,0-1.49-9.55q44.52-.61,75.64-1.86a38.29,38.29,0,0,0-.37,6.7,96.55,96.55,0,0,0,.37,9.67Zm-90.77,14V59.77h-3.72v8.56Zm0,20.09V80.23h-3.72v8.19Zm-3.72,11.78v8.3h3.72v-8.3Zm59.77-20.71a223.23,223.23,0,0,1-1,24.8H1261V99h-2.85V79.86h15V77.63h4.34V75.52h-41v2.23h6.94l-.37,1.74Zm-17.49,14-1.11,2.11a35.69,35.69,0,0,0,4.46,2.73,45.18,45.18,0,0,0,.62-4.84Zm6.57-33.23h4.59l-1.11-4.59c-1,.08-2.48.12-4.47.12Zm25.8,0,1.11-5.21-5.21.25,1.12,5Zm-.5,44h3.1V99H1270Z"/><path d="M1358.33,81.22h-30.26V131h-25.54V38.44h55.8Zm-20.59-29.14h-9.67v2.48h9.67Zm0,14.64V64.11h-9.67v2.61Zm78.62-28.28v74.28q0,8.93-1.43,12.34t-6.63,4.65q-5.21,1.24-18.35,1.11a95.91,95.91,0,0,0-3.1-24.18v21.58h-33.73V131H1332V84.57h54.81v21.7a12.64,12.64,0,0,0,2.6-.18,1.52,1.52,0,0,0,1-1.12,11,11,0,0,0,.32-3.16V81.22h-30.14V38.44Zm-50.59,58.28h-12.65v3.1h12.65Zm-12.65,16.74h12.65v-3.1h-12.65Zm28-61.38v2.48h9.68V52.08Zm0,14.64h9.68V64.11h-9.68Z"/><path d="M1433.6,133.74a17.45,17.45,0,0,1-6.14-6.14,16.6,16.6,0,0,1,0-16.86,17.36,17.36,0,0,1,6.14-6.14,16.6,16.6,0,0,1,16.86,0,17.45,17.45,0,0,1,6.14,6.14,16.66,16.66,0,0,1,0,16.86,17.53,17.53,0,0,1-6.14,6.14,16.66,16.66,0,0,1-16.86,0Zm14.5-8.56A8.55,8.55,0,0,0,1436,113.09a8.55,8.55,0,1,0,12.09,12.09Z"/><path d="M200.93,280.86h73.7v41.3H71.72v-41.3h73.71V269.32H75.27v-42.4h70.16V215.37H72.61V172.08H145.2q-10-4-20-7.32l38.85-22.87q12,4,23.76,9.22t31.08,14.09l-12,6.88h66.82v43.29H200.93v11.55h70.15v42.4H200.93Z"/><path d="M498.41,293.07q-.9,2.9-4,13t-4.88,17.43a206.78,206.78,0,0,1-56.61-12.88,224.27,224.27,0,0,1-23.65,6.22q-12.76,2.66-14.76,3.11-17.53,3.78-20.42,4.44-4.66-18.64-18-45.74a82.62,82.62,0,0,0,22.43,4.22Q367.87,276,359.88,270l18-12.88H367.2V233.58l-3.32.66.66,2.89q-6.21,4.89-12.21,9.32v77.7H306.6V272.43q-3.33,1.56-13.1,5.77a133.87,133.87,0,0,0-1.44-24.86,106.05,106.05,0,0,0-5.66-22.2q14.43-3.55,33.63-12.44a311.68,311.68,0,0,0,37-20.2,35.33,35.33,0,0,0-1.11-4.88,266.31,266.31,0,0,1-31.19,17.2,249.76,249.76,0,0,1-32.52,12.77,158.81,158.81,0,0,0-2.89-26,103.89,103.89,0,0,0-6.21-20.86,268.06,268.06,0,0,0,38.74-9.66,290.09,290.09,0,0,0,37.4-16.32q.45,17.32,2.44,36,9.56-1.56,14-5.11A27.46,27.46,0,0,0,383.3,171a33.15,33.15,0,0,0,2.77-14.43h79.26v22.2a1.7,1.7,0,0,0,.78,1.45,3.12,3.12,0,0,0,1.88.55,4.88,4.88,0,0,0,2.22-.44,1.43,1.43,0,0,0,.89-1.33q0-14-.67-22.43,20.86,8.67,31.75,10.66-.66,22-2.66,32.75t-5.44,14.65q-3.45,3.89-10.1,4.55-12.44.89-21.76.89-9.77,0-19.54-.89c-4.44-.45-7.65-1.18-9.65-2.22s-3.44-3.07-4.33-6.11-1.33-7.88-1.33-14.54h-7.11a24.18,24.18,0,0,1-6,12,91.22,91.22,0,0,1-21.31,16l97.23-.44,10.44,31.3a286.71,286.71,0,0,1-19.32,23.53,103.89,103.89,0,0,0,22.42-2.44Zm-86.81-36a80.56,80.56,0,0,0,14.88,9.77,8.14,8.14,0,0,1,1.55.89,89.83,89.83,0,0,0,11.1-10.66Z"/><path d="M575.44,163.2q-6,46.41-6,80.81a292.12,292.12,0,0,0,9.76,78.15l-55.72,2.44q-3.78-18.87-5.77-36.41a350,350,0,0,1-2-39.29q0-35.75,5.55-85.7ZM711.08,311.06l-17.09-12q-3.56,12.65-15.87,19.42t-29.2,6.77q-37.08,0-55.72-11.32t-18.65-32.63q0-20.87,15.88-31.75t41.84-10.88q2.88,0,10.88.45V219.81q-34,.45-59.27,1.56V173.2q28.85-1.33,59.27-1.34V160.54h52v11.54l27.08.67v46.62H695.1v30.19q16,4.89,29.75,10.21Zm-67.93-37.74a38.12,38.12,0,0,0-8.66-.89q-4.87,0-7.43,1.44c-1.71,1-2.56,2.11-2.56,3.44q0,2.44,3.33,4.55a15.47,15.47,0,0,0,8.44,2.11q6.87,0,6.88-8.43Z"/><path d="M942,280.86H885.35l11.1,43.74H836.29l-11.1-43.74H739.05a154,154,0,0,0-6.66-45.73h81.25l-3.77-14.65H745.93a155.52,155.52,0,0,0-6.66-46.18H798.1L793.22,155h60.16l4.89,19.31h65.49l8,46.18H870l3.78,14.65h60.38Z"/><path d="M964.83,262.22q51.95-.23,100.23,3T1168,276.65a166,166,0,0,0-5.11,19.75q-2,10.22-4.66,26.2-48.62-7.32-93.35-9.88t-100-2.55Zm12-99.46q102.12,0,178.27,12.43V220q-43.95-6.43-87.13-8.66t-91.14-2.22Zm0,53.5q46.19,0,88.58,2.67t89.69,8.65v40a808.76,808.76,0,0,0-86.14-9.43q-42.62-2.33-92.13-2.33Z"/><path d="M1294.05,208.72l-27.53,2a257,257,0,0,1-21.64,63.94q-14.55,29.09-35.85,49.73a227.45,227.45,0,0,0-17.76-28.2,155.58,155.58,0,0,0-17.76-19.76,101.1,101.1,0,0,0,24.2-27.19q9.09-15.21,14.2-37h-20.42l-.45-44.18,27.31-.22.89-13.55h53.5q0,4-.44,11.55,22.64-1.55,36.41-2.89V189.4a392,392,0,0,1,61.71-4.88h8l6.22,46.62q-3.78-.22-11.55-.23-36.4,0-79,7.55Zm9.33,51.94q0,8.88,4,12c2.67,2.08,6.88,3.11,12.66,3.11a289.46,289.46,0,0,0,35.41-2.44q19.63-2.44,29.85-6-6,18.65-8.43,52.4a165.24,165.24,0,0,1-22.2,3.44q-12.89,1.21-26.2,1.22-6,0-15.76-.45-57.95-3.1-57.94-37.52,0-12.65,7.77-29.52a225.09,225.09,0,0,0,25-4.11,105,105,0,0,0,17.43-5.22A92.75,92.75,0,0,0,1303.38,260.66Zm38.62-83a139.47,139.47,0,0,0-14.65-32l20.43-5.33a140.86,140.86,0,0,1,14.87,32.19Zm26.87-6.66a144.18,144.18,0,0,0-14.66-32.19l20.43-5.32a134.77,134.77,0,0,1,15.09,32.19Z"/><path d="M1416.6,327.6a31.19,31.19,0,0,1-11-11,29.79,29.79,0,0,1,0-30.2,31.24,31.24,0,0,1,11-11,29.78,29.78,0,0,1,30.19,0,31.4,31.4,0,0,1,11,11,29.86,29.86,0,0,1,0,30.2,31.35,31.35,0,0,1-11,11,29.84,29.84,0,0,1-30.19,0Zm26-15.32a15.31,15.31,0,0,0-21.64-21.65,15.31,15.31,0,1,0,21.64,21.65Z"/><path d="M0,0V364.81H1531.48V0ZM1504.27,339H27.21V25.86H1504.27Z"/></g></g></svg>