<svg xmlns="http://www.w3.org/2000/svg" viewBox="0 0 2569.33 387.13"><defs><style>.cls-1{fill:#ff0068;}.cls-2{fill:#f8b500;}</style></defs><g id="レイヤー_2" data-name="レイヤー 2"><g id="レイヤー_1-2" data-name="レイヤー 1"><path d="M511.1,141.12c1.6-12.6,3.1-23.9,4.5-35.2h68.3c-11.9,91.4-23.8,182.4-35.7,273.6H480.8c1-8.8,2-17.4,3-26.9-6.9,5.4-12.7,10.4-19,14.7-16.4,11.2-34.1,17.9-54.4,19-20.5,1.1-40-1.4-58.6-10.2-20.8-9.8-35.5-26-47.5-45.1a135.16,135.16,0,0,1-19.4-53.2c-4.2-29.3-1-57.9,10.7-85.6,7.8-18.4,18.1-35.3,32-49.2,22.2-22.3,48.6-37.4,80.3-42.7,21.5-3.6,42-2.2,62.1,6.4a87.14,87.14,0,0,1,37,29.9A43.87,43.87,0,0,0,511.1,141.12Zm-93.2,184.6c4.7-.6,9.3-1,14-1.7,16.4-2.4,30.6-9.2,42.2-21.1,9-9.3,15.5-20.1,20.6-32.1a95.87,95.87,0,0,0,6-57.6c-3.4-17-12.3-30.9-27-40.5-13.8-9-28.9-11.4-45.3-10.2-20.6,1.6-37.6,10-51.7,24.4a85.25,85.25,0,0,0-21.8,38.7c-4.3,16.8-5.5,33.9-1.4,50.4C360.9,305.52,384.7,325.42,417.9,325.72Z"/><path d="M1067.7,263.22c2.7,9.3,4.4,17.6,7.5,25.4,6.7,16.9,20.2,27.3,37.2,31.3,31.5,7.5,60.5,1.2,86-19.5,2.7-2.2,4.9-2.5,8.1-.8,17.2,9.2,34.5,18.1,51.8,27.1,3.1,1.6,3.6,2.9,1.2,5.9a128.87,128.87,0,0,1-36.4,31.4c-24.3,14.2-50.5,21.3-78.8,22.2-25.6.8-50.2-1.8-73.8-12.3a111.94,111.94,0,0,1-50.3-43.7c-17-27.1-20.8-57.2-18.5-88.2a152.53,152.53,0,0,1,32.8-84.3c23.5-29.8,53.7-50,91.2-56.9,32.5-6,64.7-3.4,94.5,12.2,22.1,11.6,38.8,28.9,51,50.9,14.7,26.5,18.8,54.8,17.2,84.4-.2,3.6-.8,7.3-1.3,10.9-.6,4.3-3.9,3.8-7,3.8H1075.8C1073.6,263.22,1071.4,263.22,1067.7,263.22Zm10.3-51.3h139.4a5.71,5.71,0,0,0,.1-2.2c-11.8-32.6-37.8-48.2-71-46-22.4,1.5-40.2,10.9-54.6,27.3C1086.8,197,1083.1,204.22,1078,211.92Z"/><path d="M2543.1,329c-8.6,12.2-18.7,21.5-30.2,29.6-17.3,12.2-36.6,19.8-57.1,24.5a140.32,140.32,0,0,1-24.2,2.9,288.31,288.31,0,0,1-29.4,0c-28.5-1.4-54.3-10-76.8-28.2-23.9-19.3-36.6-44.9-41.4-74.2a161.07,161.07,0,0,1,5-75.2,157.52,157.52,0,0,1,30.4-55c18.6-22.1,41.2-38.2,68.4-47.3,11.9-4,25.1-4.5,37.6-6.7,18.6-3.3,36.5.5,54.3,5.1,19.5,5.1,36.3,15.6,50.3,29.7,19.5,19.5,32.3,43.3,36.7,70.7,2.3,14.3,2,29,2.6,43.5.2,3.6-.7,7.3-1.2,10.9s-2.9,4.1-6.2,4.1q-30.45-.15-60.9-.1H2349.9c1,12.7,3.9,24.4,11.2,34.8,9.4,13.2,22.4,20.7,37.8,23.4,23.2,4.1,45.5.7,66.1-11.1a104.31,104.31,0,0,0,13.5-9.3c3-2.4,5.4-3.1,9.1-1.1C2505.8,309.62,2524,319,2543.1,329Zm-44.8-117c.1-.9.4-1.5.2-2.1-13.7-38.8-45-50.4-78.2-45.8-25.5,3.6-44.2,18.5-57.1,40.5a50.45,50.45,0,0,0-2.9,7.3C2407,212,2452.6,212,2498.3,212Z"/><path class="cls-1" d="M70.5,379.62H0c.9-8.5,1.7-16.7,2.8-24.9,1.5-11.1,3.2-22.1,4.8-33.1,2.1-14.5,4.2-28.9,6.1-43.4,1.8-13.7,3.3-27.5,5.1-41.2,2.3-16.9,4.9-33.7,7.3-50.6,1.8-13.3,3.3-26.6,5.1-39.9,1.9-14.5,4.1-28.9,6.1-43.4,1.4-10.7,2.4-21.4,3.9-32.1,1.9-14.1,4.1-28.1,6-42.2a99.67,99.67,0,0,0,1.3-13.4c-.1-4.5,1.8-5.6,6-5.6,30.4.1,60.9-.7,91.3.3,28.3.9,55.8,6.1,78.9,24.5,16.8,13.4,28.3,29.9,32.8,51.2,4.4,21.1,3.7,41.8-3.9,61.9-11.2,29.9-31.7,51.2-61.5,63.1-15.2,6.1-31.1,8.9-47.4,10-13.7.9-27.4,1.6-41.1,2.5-4,.3-8,1.1-12.1,1.7C84.5,276.52,77.5,327.82,70.5,379.62Zm29.8-222.4a24.35,24.35,0,0,0,2.9.5c15.1-1.2,30.2-1.9,45.1-3.9,9.7-1.3,19.5-4.1,27.4-10.7,11.2-9.4,14.6-21.3,13.6-35.7-.8-10.9-11.4-23.6-20.9-26.6-17.5-5.6-35.6-4.8-53.5-4.7-1.3,0-3.5,2.1-3.9,3.6-.9,3.7-1,7.7-1.5,11.5-1.9,13.2-3.9,26.5-5.8,39.7C102.5,139.42,101.4,148.12,100.3,157.22Z"/><path d="M2076.4,106c-1.2,8.5-2.3,16.7-3.3,23.4,11.7-7.1,23.7-15.9,37-21.9,26.1-11.9,53.3-13.9,79.5-.8,24.6,12.3,38.7,32.7,42.1,60.6,2.1,16.5-.7,32.5-2.6,48.7-1.6,13.9-3.3,27.9-5.1,41.8-1.9,14.1-4.1,28.1-5.9,42.2-1.5,11.1-2.6,22.2-4,33.3-1.4,10.7-3,21.3-4.5,32-.7,4.8-1.3,9.5-1.9,14.3h-67.3c1.1-9.8,1.9-19.3,3.1-28.7,1.4-11.3,3.1-22.5,4.7-33.8,2-14.1,4-28.1,5.9-42.2,1.4-10.7,2.7-21.4,4-32.1,1.7-13.5,3.8-27,4.8-40.6,1.7-24.6-9.3-41.3-36.6-40-24.8,1.2-42.1,15.4-54,36.7-8.8,15.7-11.8,33-14.8,50.4-2.6,15.4-5.1,30.8-7.3,46.2-2,13.9-3.4,27.9-5.1,41.8-1.6,13.1-3.2,26.2-5.1,39.3-.2,1.2-2.4,3.1-3.6,3.1-21.3.2-42.6.1-65,.1,12.4-91.5,24.6-182.4,37-273.8Z"/><path d="M1768.1,105.62c-1,8.9-1.7,17.2-2.8,25.4-1.4,10.9-3.1,21.7-4.6,32.5-2.5,17.9-5.1,35.8-7.3,53.7-1.9,15.4-3.7,30.7-5,46.1-.7,8.7-1.3,17.6.1,26.1,2.8,16.5,14.1,26.8,29.6,30.5,20.2,4.8,39.1,1.2,53.5-15.4,7.6-8.8,11.1-19.8,13.3-30.8,3.7-18,6.1-36.4,8.9-54.6,2.5-16.2,5-32.5,7.3-48.7,1.9-13.5,3.4-27,5.1-40.5.9-6.9,1.5-13.8,2.8-20.5.3-1.5,2.9-3.5,4.5-3.6,20.9-.2,41.8-.2,63.5-.2-.4,4.5-.7,8.6-1.2,12.7-3.2,22.9-6.7,45.8-9.8,68.7-2.7,19.7-4.8,39.5-7.6,59.3-3.9,28.1-8.4,56.3-22.5,81.4-16.7,29.9-41.7,49.4-75.9,55.8-9.6,1.8-19.4,3.8-29,3.6-28.1-.7-54.7-5.7-76.9-25.5-19.6-17.5-30.4-38.8-33.2-64.8-1.9-17.3-.6-34.3,1.4-51.4,1.7-15,3.1-30,5.1-44.9,2.2-16.3,4.9-32.5,7.2-48.7,1.9-13.3,3.5-26.6,5.1-39.9.4-3.1.2-6.3,4.7-6.2C1725.4,105.62,1746.3,105.62,1768.1,105.62Z"/><path class="cls-2" d="M1526.4,77.12h-78.2c2.8-22.5,5.6-44.3,8.4-66.7H1683c-2.7,22.1-5.3,44.1-8,66.5h-78.4c-13.3,100.9-26.5,201.5-39.8,302.5h-70.1C1499.9,278.92,1513.1,178.52,1526.4,77.12Z"/><path d="M807.3,143.32c-11.3,18.1-22.1,35.5-33,53-6.5-7.1-12.1-14.1-18.5-20.1-9.9-9.3-21.3-15.4-35.6-14.8-8.1.4-13.6,4.3-17.1,11-3.6,6.9.5,12.5,5.2,16.8,7,6.5,14.7,12.3,22.2,18.2,12.9,10.2,26.5,19.7,38.7,30.7,21.5,19.6,31.7,44.2,28.4,73.4-1.6,14.1-7.4,26.9-16.2,38.1-10.1,12.9-21.5,24.2-37.3,29.6-8.6,2.9-17.4,5.5-26.4,6.6a129,129,0,0,1-49.8-3.4A104.83,104.83,0,0,1,631.2,364c-10.2-7.9-19.2-17.3-28.8-25.9-2.8-2.5-2.5-4.3-.1-7.1,11.7-13.4,23.1-27,34.5-40.6,1.5-1.7,2.9-3.5,3.9-4.8,8.3,7.9,15.4,16.1,23.8,22.4,15.2,11.5,32.2,18.8,51.6,12.1,15.5-5.3,22-20,7.7-32.9-13.9-12.5-28.9-23.8-43.9-35.1-14.6-11-28.3-22.9-37.2-39.1a73.28,73.28,0,0,1-8.3-48.4c6.4-37,31.1-55.9,65.2-63.8,32.1-7.5,61.3.6,86.6,21.6C793.9,128.62,800.2,136.22,807.3,143.32Z"/><path d="M963.7,3.82c-4.7,34.1-9.3,67.5-14,101.4h41.9c-.5,5.3-.7,9.8-1.4,14.3-2,13.7-4.3,27.3-6,40.9-.5,4-2.1,4.7-5.5,4.7-10.8-.1-21.5.1-32.3-.1-3.2-.1-5.3.8-5.7,4-1.8,13.5-3.3,27-5.1,40.5s-3.9,26.9-5.8,40.4c-1.4,10.3-2.7,20.5-4.1,30.8-2,14.3-4.1,28.5-6,42.8-1.8,13.7-3.5,27.4-5.2,41.2-.5,3.8-.6,7.8-1.5,11.5-.4,1.4-2.6,3.4-4,3.4-20.9.2-41.8.1-62.7,0-.5,0-1.1-.5-2.1-1.1,9.7-70.8,19.4-141.7,29.3-213.2H840.8c2.7-20.3,5.3-39.9,8-59.9,9.7,0,18.7-.2,27.8.1,4.3.1,5.4-1.4,5.9-5.7,1.5-13.7,3.9-27.3,5.8-41,1.8-13.3,3.5-26.6,5.3-39.9.5-3.8.5-7.8,1.5-11.5.4-1.6,2.9-3.6,4.4-3.6C920.3,3.72,941.2,3.82,963.7,3.82Z"/><path d="M1385.4,379.82h-63.5c-3.6,0-4.5-.7-3.8-5,2.7-17.3,4.3-34.7,6.6-52,2.7-20.1,5.9-40.2,8.6-60.3,2.3-17.5,4-35.2,6.4-52.7,2.7-20.1,5.9-40.2,8.6-60.3,2.7-20.4,4.9-40.8,7.6-61.1,2.7-20.1,5.8-40.2,8.6-60.3,1.1-7.9,1.5-15.8,2.7-23.7.2-1.6,2.4-4.2,3.7-4.2,21.3-.3,42.6-.2,65-.2C1418.9,126.92,1402.2,253.12,1385.4,379.82Z"/></g></g></svg>